HIERARCHY
ROOT Hips
{
	OFFSET 0.000000 0.000000 0.000000
	CHANNELS 6 Xposition Yposition Zposition Zrotation Yrotation Xrotation 
	JOINT LHipJoint
	{
		OFFSET 0.000000 0.000000 0.000000
		CHANNELS 3 Zrotation Yrotation Xrotation
		JOINT LeftUpLeg
		{
			OFFSET 1.363060 -1.794630 0.839290
			CHANNELS 3 Zrotation Yrotation Xrotation
			JOINT LeftLeg
			{
				OFFSET 2.448110 -6.726130 0.000000
				CHANNELS 3 Zrotation Yrotation Xrotation
				JOINT LeftFoot
				{
					OFFSET 2.562200 -7.039590 0.000000
					CHANNELS 3 Zrotation Yrotation Xrotation
					JOINT LeftToeBase
					{
						OFFSET 0.157640 -0.433110 2.322550
						CHANNELS 3 Zrotation Yrotation Xrotation
						End Site
						{
							OFFSET 0.000000 0.000000 0.000000
						}
					}
				}
			}
		}
	}
	JOINT RHipJoint
	{
		OFFSET 0.000000 0.000000 0.000000
		CHANNELS 3 Zrotation Yrotation Xrotation
		JOINT RightUpLeg
		{
			OFFSET -1.305520 -1.794630 0.839290
			CHANNELS 3 Zrotation Yrotation Xrotation
			JOINT RightLeg
			{
				OFFSET -2.542530 -6.985550 0.000000
				CHANNELS 3 Zrotation Yrotation Xrotation
				JOINT RightFoot
				{
					OFFSET -2.568260 -7.056230 0.000000
					CHANNELS 3 Zrotation Yrotation Xrotation
					JOINT RightToeBase
					{
						OFFSET -0.164730 -0.452590 2.363150
						CHANNELS 3 Zrotation Yrotation Xrotation
						End Site
						{
							OFFSET 0.000000 0.000000 0.000000
						}
					}
				}
			}
		}
	}
	JOINT LowerBack
	{
		OFFSET 0.000000 0.000000 0.000000
		CHANNELS 3 Zrotation Yrotation Xrotation
		JOINT Spine
		{
			OFFSET 0.028270 2.035590 -0.193380
			CHANNELS 3 Zrotation Yrotation Xrotation
			JOINT Spine1
			{
				OFFSET 0.056720 2.048850 -0.042750
				CHANNELS 3 Zrotation Yrotation Xrotation
				JOINT Neck
				{
					OFFSET 0.000000 0.000000 0.000000
					CHANNELS 3 Zrotation Yrotation Xrotation
					JOINT Neck1
					{
						OFFSET -0.054170 1.746240 0.172020
						CHANNELS 3 Zrotation Yrotation Xrotation
						JOINT Head
						{
							OFFSET 0.104070 1.761360 -0.123970
							CHANNELS 3 Zrotation Yrotation Xrotation
							End Site
							{
								OFFSET 0.000000 0.000000 0.000000
							}
						}
					}
				}
				JOINT LeftShoulder
				{
					OFFSET 0.000000 0.000000 0.000000
					CHANNELS 3 Zrotation Yrotation Xrotation
					JOINT LeftArm
					{
						OFFSET 3.362410 1.200890 -0.311210
						CHANNELS 3 Zrotation Yrotation Xrotation
						JOINT LeftForeArm
						{
							OFFSET 4.983000 -0.000000 -0.000000
							CHANNELS 3 Zrotation Yrotation Xrotation
							JOINT LeftHand
							{
								OFFSET 3.483560 -0.000000 -0.000000
								CHANNELS 3 Zrotation Yrotation Xrotation
								JOINT LeftFingerBase
								{
									OFFSET 0.000000 0.000000 0.000000
									CHANNELS 3 Zrotation Yrotation Xrotation
									JOINT LeftHandIndex1
									{
										OFFSET 0.715260 -0.000000 -0.000000
										CHANNELS 3 Zrotation Yrotation Xrotation
										End Site
										{
											OFFSET 0.000000 0.000000 0.000000
										}
									}
								}
								JOINT LThumb
								{
									OFFSET 0.000000 0.000000 0.000000
									CHANNELS 3 Zrotation Yrotation Xrotation
									End Site
									{
										OFFSET 0.000000 0.000000 0.000000
									}
								}
							}
						}
					}
				}
				JOINT RightShoulder
				{
					OFFSET 0.000000 0.000000 0.000000
					CHANNELS 3 Zrotation Yrotation Xrotation
					JOINT RightArm
					{
						OFFSET -3.136600 1.374050 -0.404650
						CHANNELS 3 Zrotation Yrotation Xrotation
						JOINT RightForeArm
						{
							OFFSET -5.241900 -0.000000 -0.000000
							CHANNELS 3 Zrotation Yrotation Xrotation
							JOINT RightHand
							{
								OFFSET -3.444170 -0.000000 -0.000000
								CHANNELS 3 Zrotation Yrotation Xrotation
								JOINT RightFingerBase
								{
									OFFSET 0.000000 0.000000 0.000000
									CHANNELS 3 Zrotation Yrotation Xrotation
									JOINT RightHandIndex1
									{
										OFFSET -0.622530 -0.000000 -0.000000
										CHANNELS 3 Zrotation Yrotation Xrotation
										End Site
										{
											OFFSET 0.000000 0.000000 0.000000
										}
									}
								}
								JOINT RThumb
								{
									OFFSET 0.000000 0.000000 0.000000
									CHANNELS 3 Zrotation Yrotation Xrotation
									End Site
									{
										OFFSET 0.000000 0.000000 0.000000
									}
								}
							}
						}
					}
				}
			}
		}
	}
}
MOTION
Frames: 5
Frame Time: 0.008333
16.278327 16.786530 1.597096 88.167328 -88.528109 -41.101889 -8.439339 -0.502943 3.814803 -8.406150 -9.151173 -58.775103 -2.401220 -1.140721 18.106198 3.984973 14.608035 -13.395612 -0.399100 0.000000 -43.853500 8.330643 0.350882 4.651760 3.873960 7.301735 -59.312856 2.600904 0.324098 19.609886 -3.220430 -8.386274 -14.614260 0.103500 0.000001 -59.650200 2.096567 -2.059733 -5.267617 -0.249144 -2.408095 -3.833138 -5.895362 -2.539675 2.009936 10.145587 -12.897530 -12.061664 -2.355278 -0.114955 -1.483005 0.000000 0.000000 0.000000 -3.341140 12.144832 2.414705 -61.285832 23.696559 20.316995 -2.892918 -38.356955 0.006804 -4.734367 -5.683149 0.231793 -0.067915 -0.008523 -0.000000 0.000000 0.000000 0.000000 0.000000 0.000000 0.000000 14.300859 -10.910973 2.716957 67.684500 -18.043114 -0.445977 3.288093 23.608845 0.017499 -1.236365 7.870577 -0.095032 0.136068 -0.096551 0.000000 0.000000 0.000000 0.000000 0.000000 0.000000 0.000000 
16.258639 16.704301 1.597053 90.639709 -88.322815 -42.665949 -8.352231 -0.497658 3.934661 -8.380278 -9.809144 -60.997977 -2.385607 -0.899530 20.698902 4.181771 14.649972 -15.059352 -0.866000 -0.000000 -44.212800 8.314816 0.409743 4.753540 3.447778 7.475097 -61.810180 2.535302 -0.046944 22.576840 -3.339918 -8.248018 -16.085908 0.376300 -0.000001 -59.213400 1.928565 -2.092577 -5.431754 -0.292828 -2.437367 -3.880819 -5.903762 -2.572934 1.994498 10.267793 -12.988377 -12.226406 -2.370163 -0.113221 -1.544611 0.000000 0.000000 0.000000 -3.478337 12.236010 2.463531 -61.319350 23.687431 19.761391 -2.867491 -38.515023 0.007418 -4.498454 -5.793789 0.224606 -0.068639 -0.004057 -0.000000 0.000000 0.000000 0.000000 0.000000 0.000000 0.000000 14.581435 -10.980586 2.760155 67.646094 -18.079383 -0.509452 3.231624 24.051840 0.017230 -1.346707 7.916580 -0.103330 0.135316 -0.100666 0.000000 0.000000 0.000000 0.000000 0.000000 0.000000 0.000000 
16.238964 16.611105 1.597297 92.084774 -88.114412 -43.183764 -8.261342 -0.481708 4.071475 -8.318867 -10.516811 -63.340906 -2.355472 -0.630895 23.458380 4.380051 14.675590 -16.768550 -1.351900 -0.000000 -44.453700 8.314056 0.485991 4.859789 2.997297 7.618836 -64.404400 2.453767 -0.442426 25.694562 -3.464826 -8.135503 -17.596732 0.656000 0.000000 -58.768200 1.773012 -2.125344 -5.624840 -0.334710 -2.468766 -3.934609 -5.914631 -2.608607 1.980247 10.394668 -13.072942 -12.386755 -2.390870 -0.112113 -1.604863 0.000000 0.000000 0.000000 -3.612539 12.307136 2.512462 -61.390430 23.627157 19.135730 -2.842683 -38.593250 0.008022 -4.240077 -5.910491 0.215819 -0.069503 0.000449 -0.000000 0.000000 0.000000 0.000000 0.000000 0.000000 0.000000 14.887473 -11.047814 2.800138 67.588516 -18.066351 -0.557284 3.175089 24.482131 0.016915 -1.476892 7.957163 -0.113026 0.134714 -0.104803 0.000000 0.000000 0.000000 0.000000 0.000000 0.000000 0.000000 
16.219071 16.506348 1.598041 92.615219 -87.902495 -42.770753 -8.170905 -0.459544 4.226485 -8.209906 -11.276291 -65.794768 -2.305751 -0.338247 26.363524 4.576379 14.690365 -18.487788 -1.844900 0.000000 -44.515300 8.326464 0.578512 4.971870 2.521840 7.731983 -67.086226 2.353644 -0.859274 28.947554 -3.595301 -8.058393 -19.131040 0.941400 0.000000 -58.282200 1.633308 -2.158252 -5.850184 -0.373655 -2.502827 -3.996018 -5.927301 -2.647321 1.964087 10.520709 -13.141540 -12.536485 -2.417213 -0.111733 -1.661721 0.000000 0.000000 0.000000 -3.742584 12.340313 2.561635 -61.503053 23.541843 18.435451 -2.818685 -38.602067 0.008584 -3.972611 -6.027626 0.206131 -0.070377 0.004921 -0.000000 0.000000 0.000000 0.000000 0.000000 0.000000 0.000000 15.208418 -11.103243 2.837821 67.521802 -18.024549 -0.607185 3.119506 24.904143 0.016561 -1.617963 7.990947 -0.123523 0.134223 -0.108944 0.000000 0.000000 0.000000 0.000000 0.000000 0.000000 0.000000 
16.199065 16.389477 1.599451 92.360291 -87.686139 -41.558037 -8.084571 -0.435849 4.399975 -8.042644 -12.087044 -68.348710 -2.231809 -0.026223 29.392993 4.767582 14.699896 -20.186111 -2.334700 -0.000000 -44.338400 8.349862 0.686569 5.090453 2.020989 7.814109 -69.842911 2.232697 -1.293296 32.318800 -3.731461 -8.024829 -20.677573 1.232999 -0.000000 -57.707900 1.511502 -2.191545 -6.108985 -0.408580 -2.539918 -4.065273 -5.940115 -2.689457 1.945971 10.641486 -13.193238 -12.673525 -2.447591 -0.111980 -1.714433 0.000000 0.000000 0.000000 -3.865565 12.331889 2.611381 -61.658987 23.437769 17.671509 -2.795808 -38.545331 0.009094 -3.707967 -6.142301 0.195942 -0.071170 0.009357 -0.000000 0.000000 0.000000 0.000000 0.000000 0.000000 0.000000 15.532036 -11.146330 2.873534 67.452368 -17.961874 -0.655463 3.065475 25.318306 0.016174 -1.766026 8.019060 -0.134520 0.133837 -0.113057 0.000000 0.000000 0.000000 0.000000 0.000000 0.000000 0.000000 
